<svg width="20" height="20" viewBox="0 0 29 34" xmlns="http://www.w3.org/2000/svg"><g fill="#FFF"><path d="M14.483 10.283a1.945 1.945 0 0 1-1.946-1.943c0-1.072.871-1.942 1.946-1.942s1.947.867 1.947 1.94a1.944 1.944 0 0 1-1.947 1.942v.003Zm4.255-1.963s-1.42-2.257-4.245-2.257h-.01c-2.825 0-4.245 2.257-4.245 2.257s1.967 2.257 4.247 2.257h.01c2.28 0 4.245-2.257 4.245-2.257h-.002Z"/><path d="M14.055 7.207c-.367 0-.662.316-.662.706 0 .39.297.705.662.705.367 0 .662-.313.662-.703 0-.39-.295-.707-.662-.707"/><path d="M1.01 15.633c.3.47.65.9 1.033 1.295v.2c0 6.95 5.57 12.584 12.445 12.584s12.45-5.634 12.45-12.584c0-.066-.003-.128-.005-.191a8.45 8.45 0 0 0 1.037-1.29c.092.695.14 1.406.14 2.13 0 10.64-13.622 14.893-13.622 14.893S.867 28.72.867 17.777c0-.727.05-1.442.143-2.142v-.002Zm10.333-3.693c2.217 1.443 2.784 3.437 2.784 7.072 0 8.258-3.19 9.3-3.19 9.3s-5.49-1.655-5.49-5.484c0-2.22 3.171-2.91 3.171-2.91S-5.793 15.822 4.173 5.342c.157 2.478 4.76 5.033 7.17 6.6v-.002Zm11.284-4.338a12.327 12.327 0 0 0-8.139-3.06c-3.108 0-5.95 1.153-8.133 3.058a9.01 9.01 0 0 1-.817-.862c.797-1.003 1.087-2.171 1.074-2.776.666.54 1.986.586 3.433.116l.217-.075A8.71 8.71 0 0 0 14.485.72a8.732 8.732 0 0 0 4.16 3.26c.137.043.27.09.403.138 1.4.43 2.667.37 3.31-.155-.013.609.279 1.784 1.079 2.787-.227.283-.5.567-.809.85l-.001.002Zm-8.139 6.711c-.495-1.5-1.08-2.336-2.866-3.533-2.2-1.467-2.5-2.458-2.5-2.458s1.403-3.044 5.361-3.044h.012c3.957 0 5.36 3.044 5.36 3.044s-.3.991-2.5 2.46c-1.787 1.195-2.37 2.03-2.867 3.533v-.002Zm9.05 8.517c0 3.828-5.49 5.483-5.49 5.483s-3.19-1.041-3.19-9.3c0-3.633.567-5.628 2.784-7.071 2.411-1.567 7.013-4.122 7.171-6.6 9.967 10.48-4.45 14.578-4.45 14.578s3.172.692 3.172 2.91h.003Zm5.23-9.05c.729-2.707-.445-5.7-3.483-8.895a.66.66 0 0 0-.698-.163.661.661 0 0 0-.427.578c-.017.283-.12.592-.305.917-.597-.805-.855-1.725-.845-2.24a.66.66 0 0 0-.65-.675c-.15 0-.3.053-.413.146-.224.184-.65.287-1.167.287-.475 0-1-.083-1.523-.242a6.48 6.48 0 0 0-.395-.133A8.094 8.094 0 0 1 15.025.348a.644.644 0 0 0-1.075 0 8.117 8.117 0 0 1-3.9 3.029l-.2.066a5.453 5.453 0 0 1-1.673.289c-.522 0-.934-.104-1.159-.287a.649.649 0 0 0-.698-.078.677.677 0 0 0-.363.608c.01.512-.247 1.425-.834 2.225h-.006c-.179-.317-.279-.622-.297-.9a.66.66 0 0 0-.652-.62.643.643 0 0 0-.47.203C.657 8.08-.518 11.072.21 13.777c.117.426.283.855.5 1.27v.003a.652.652 0 0 0-.35.497c-.1.733-.15 1.483-.15 2.23 0 4.703 2.453 8.886 7.095 12.096 3.453 2.389 6.857 3.39 7 3.434a.683.683 0 0 0 .373-.005c.142-.044 3.534-1.117 6.992-3.544 4.64-3.261 7.093-7.403 7.093-11.98 0-.738-.05-1.483-.146-2.216a.662.662 0 0 0-.35-.5c.216-.42.388-.85.505-1.284l-.004.002Z"/></g></svg>