<svg width="182" height="71" viewBox="0 0 182 71" xmlns="http://www.w3.org/2000/svg"><g fill="#FFF" fill-rule="nonzero"><path d="M24.29 19.776c0 .717.502 1.29 1.219 1.29.645 0 1.218-.573 1.218-1.29 0-.716-.502-1.29-1.218-1.29-.645 0-1.218.574-1.218 1.29z"/><path d="M18.63 20.493s3.51 4.013 7.667 4.013c4.084 0 7.667-4.013 7.667-4.013s-2.58-4.013-7.667-4.013c-5.088 0-7.667 4.013-7.667 4.013zm11.106 0c0 1.935-1.576 3.44-3.51 3.44-1.935 0-3.512-1.577-3.512-3.44 0-1.935 1.577-3.44 3.511-3.44 2.006 0 3.511 1.577 3.511 3.44z"/><path d="M45.858 14.26c-.286-.288-.573-.43-1.003-.43-.143 0-.286 0-.43.07-.501.216-.86.646-.86 1.147 0 .43-.143.86-.358 1.29-.931-1.361-1.361-2.794-1.29-3.654 0-.502-.286-1.003-.788-1.218-.215-.072-.358-.144-.573-.144-.287 0-.645.072-.86.287-.358.286-1.075.501-2.006.501a8.735 8.735 0 0 1-2.938-.501c-.143-.072-.215-.072-.358-.143a14.023 14.023 0 0 1-6.95-5.374c-.287-.359-.646-.574-1.147-.574-.43 0-.86.215-1.147.574-2.293 3.296-5.302 4.729-6.95 5.374-.143.071-.287.071-.358.143a8.735 8.735 0 0 1-2.938.501c-.932 0-1.576-.143-2.006-.501-.215-.215-.574-.287-.86-.287-.215 0-.43.072-.573.144a1.324 1.324 0 0 0-.789 1.218c0 .86-.358 2.293-1.29 3.654-.214-.43-.358-.86-.358-1.29 0-.501-.358-1.003-.86-1.146-.143-.072-.286-.072-.43-.072-.358 0-.716.143-1.003.43C1.218 19.991-.93 25.365.43 30.31c.215.717.501 1.434.86 2.15-.359.143-.573.502-.645.86-.143 1.29-.287 2.651-.287 4.012 0 8.456 4.443 15.98 12.826 21.712 6.234 4.299 12.396 6.09 12.683 6.162.143 0 .215.071.358.071.144 0 .215 0 .358-.071.287-.072 6.45-1.863 12.683-6.162C47.65 53.31 52.092 45.787 52.092 37.33c0-1.36-.072-2.65-.286-4.012a1.593 1.593 0 0 0-.574-.932 13.45 13.45 0 0 0 .86-2.15c1.362-4.872-.716-10.246-6.234-15.978zM12.11 12.682c1.219.931 3.583 1.074 6.163.215.143-.072.286-.072.358-.144a15.111 15.111 0 0 0 7.595-5.875c2.006 2.938 4.944 4.872 7.595 5.875.144.072.287.072.359.144 2.58.86 5.015.788 6.162-.215 0 1.074.502 3.152 1.935 4.944-.43.501-.932 1.003-1.505 1.504-3.941-3.367-9.028-5.445-14.617-5.445a22.288 22.288 0 0 0-14.618 5.445 14.896 14.896 0 0 1-1.505-1.504c1.577-1.792 2.078-3.87 2.078-4.944zm23.79 7.81s-.574 1.791-4.515 4.37c-3.224 2.15-4.299 3.583-5.159 6.306-.86-2.65-1.934-4.156-5.159-6.305-3.94-2.651-4.514-4.371-4.514-4.371s2.58-5.446 9.745-5.446c7.094 0 9.601 5.446 9.601 5.446zM7.666 15.19c.287 4.442 8.598 8.956 12.898 11.75 4.012 2.58 5.015 6.091 5.015 12.612 0 14.689-5.732 16.552-5.732 16.552S9.96 53.167 9.96 46.36c0-3.941 5.732-5.16 5.732-5.16s-25.938-7.38-8.025-26.01zm18.63 48.652C26.01 63.772 1.79 56.678 1.79 37.331c0-1.29.072-2.579.287-3.797.43.788 1.075 1.576 1.791 2.293v.358c0 12.396 10.032 22.428 22.428 22.428S48.724 48.58 48.724 36.185v-.358c.717-.717 1.29-1.505 1.863-2.293.144 1.218.287 2.508.287 3.797-.072 19.419-24.29 26.44-24.577 26.512zM36.83 41.13s5.732 1.218 5.732 5.16c0 6.806-9.888 9.744-9.888 9.744s-5.732-1.863-5.732-16.552c0-6.449 1.003-10.031 5.015-12.61 4.371-2.795 12.612-7.381 12.898-11.752 17.985 18.701-8.025 26.01-8.025 26.01zM87.417 24.864c5.733 0 10.175-4.3 10.175-9.745v-.072c0-5.445-4.37-9.673-10.175-9.673-5.732 0-10.246 4.3-10.246 9.745v.072c.072 5.445 4.442 9.673 10.246 9.673zm-3.869-9.745c0-2.221 1.505-4.156 3.87-4.156 2.364 0 3.94 2.006 3.94 4.228v.071c0 2.221-1.504 4.156-3.869 4.156-2.436-.072-3.941-2.078-3.941-4.3zM105.474 15.835l6.95 8.67h5.518V5.805h-6.162v8.24l-6.664-8.24h-5.804v18.702h6.162zM136.142 19.346h-9.888V17.34h9.1v-4.514h-9.1v-1.863h9.744v-5.16h-15.907v18.703h16.05zM88.134 44.855l3.296-9.243 3.296 9.243h5.374l6.162-18.773h-6.449l-2.65 8.957-3.01-9.029h-5.374l-3.01 9.029-2.65-8.957h-6.521l6.09 18.773zM105.832 35.397c0 5.446 4.371 9.745 10.175 9.745 5.732 0 10.175-4.3 10.175-9.745v-.072c0-5.445-4.371-9.673-10.175-9.673-5.732 0-10.175 4.37-10.175 9.745zm14.044 0c0 2.221-1.504 4.227-3.869 4.227-2.436 0-3.94-2.006-3.94-4.227v-.072c0-2.221 1.504-4.156 3.868-4.156 2.437 0 3.941 2.007 3.941 4.228zM127.902 44.712h6.233v-5.303h1.362l3.51 5.303h7.095l-4.371-6.377c2.293-1.075 3.654-3.01 3.654-5.733v-.071c0-1.935-.573-3.296-1.72-4.443-1.29-1.29-3.439-2.15-6.735-2.15h-9.1v18.774h.072zm6.233-13.4h2.723c1.433 0 2.365.574 2.365 1.792v.072c0 1.146-.932 1.79-2.436 1.79h-2.723v-3.653h.071zM161.937 39.41h-8.742V26.081h-6.234v18.63h14.976zM170.464 26.082h-7.166v18.63h6.95c7.524 0 11.322-3.941 11.322-9.458v-.072c0-5.446-3.726-9.1-11.106-9.1zm4.8 9.387c0 2.722-1.862 3.869-4.657 3.869h-1.075v-7.81h1.075c2.795 0 4.658 1.146 4.658 3.94zM102.536 46.217l-7.452 17.698-3.582-5.302c2.292-1.075 3.654-3.01 3.654-5.733v-.071c0-1.935-.573-3.296-1.72-4.443-1.29-1.29-3.44-2.15-6.735-2.15h-9.1v18.63h6.234v-5.302h1.361l3.511 5.302h12.611l.932-2.507h6.52l1.003 2.507h6.807l-7.882-18.773h-6.162v.144zm-13.542 7.165c0 1.146-.932 1.791-2.437 1.791h-2.722v-3.582h2.722c1.505 0 2.437.573 2.437 1.79zm14.904 4.657l1.72-4.514 1.719 4.514h-3.44zM124.534 46.36h-7.165v18.63h6.95c7.524 0 11.321-3.941 11.321-9.459v-.071c0-5.446-3.726-9.1-11.106-9.1zm4.8 9.315c0 2.723-1.862 3.87-4.657 3.87h-1.075v-7.74h1.075c2.795 0 4.658 1.147 4.658 3.87zM137.36 46.36h6.234v18.63h-6.234zM155.631 45.93c-5.732 0-10.246 4.3-10.246 9.745v.071c0 5.446 4.37 9.674 10.175 9.674 5.732 0 10.175-4.3 10.175-9.745v-.072c0-5.374-4.371-9.673-10.104-9.673zm3.798 9.816c0 2.222-1.505 4.156-3.87 4.156-2.435 0-3.94-2.006-3.94-4.227v-.072c0-2.221 1.505-4.156 3.87-4.156 2.435 0 3.94 2.007 3.94 4.3zM63.772 0h1.72v70.65h-1.72z"/></g></svg>