<svg width="10" height="10.5" xmlns="http://www.w3.org/2000/svg"><g id="svg-calendar-infill" fill="#fff" fill-rule="evenodd"><path id="svg-calendar-stroke" d="M6.436 2c.75 0 1.029.06 1.305.208.238.127.424.313.551.551.148.276.208.555.208 1.305v3.872c0 .75-.06 1.029-.208 1.305a1.324 1.324 0 0 1-.551.551c-.276.148-.555.208-1.305.208H2.564c-.75 0-1.029-.06-1.305-.208a1.324 1.324 0 0 1-.551-.551C.56 8.965.5 8.686.5 7.936V4.064c0-.75.06-1.029.208-1.305.127-.238.313-.424.551-.551C1.535 2.06 1.814 2 2.564 2z" stroke="#000"/><path id="svg-calendar-fill" fill="#000" d="M2.5 0h1v4h-1zm3 0h1v4h-1z"/></g></svg>