<svg xmlns="http://www.w3.org/2000/svg" viewBox="0 0 20.86 21" width="20" height="20"><defs><style>.cls-1{fill:none;}.cls-2{fill:#fff;fill-rule:evenodd;}</style></defs><g id="Layer_2" data-name="Layer 2"><g id="Layer_1-2" data-name="Layer 1"><rect class="cls-1" width="20.86" height="21"/><g id="Group-12"><g id="Group-7"><path id="Fill-1" class="cls-2" d="M2.74,16.18v-9H18.12v9.05ZM18.12,5.32H6.29l6.83-3.73L12.26,0,2.45,5.35A1.8,1.8,0,0,0,.93,7.13v9.05A1.81,1.81,0,0,0,2.74,18H18.12a1.81,1.81,0,0,0,1.81-1.8v-9a1.81,1.81,0,0,0-1.81-1.81Z"/><polygon id="Fill-3" class="cls-2" points="4.55 10.75 11.78 10.75 11.78 8.94 4.55 8.94 4.55 10.75"/><polygon id="Fill-5" class="cls-2" points="4.55 14.37 9.97 14.37 9.97 12.56 4.55 12.56 4.55 14.37"/><path id="Fill-6" class="cls-2" d="M14.5,10.75a1.81,1.81,0,1,0,1.81,1.81,1.81,1.81,0,0,0-1.81-1.81"/></g></g></g></g></svg>