<svg xmlns="http://www.w3.org/2000/svg" viewBox="0 0 20.86 21" width="20" height="20"><defs><style>.cls-1{fill:none;}.cls-2{fill:#fff;fill-rule:evenodd;}</style></defs><g id="Layer_2" data-name="Layer 2"><g id="Layer_1-2" data-name="Layer 1"><rect class="cls-1" width="20.86" height="21"/><g id="Group"><g id="Group-3"><path id="Fill-1" class="cls-2" d="M8.73,13.2h3.4a.85.85,0,0,1,.85.85v3.4h1.7V11.5a.85.85,0,0,1,.85-.85H16l-5.6-5.6-5.6,5.6h.5a.85.85,0,0,1,.85.85v5.95h1.7v-3.4a.85.85,0,0,1,.85-.85m5.95,5.95H13a1.7,1.7,0,0,1-1.7-1.7V14.9H9.58v2.55a1.7,1.7,0,0,1-1.7,1.7H6.18a1.7,1.7,0,0,1-1.7-1.7v-5.1H2.78A.85.85,0,0,1,2,11.82a.83.83,0,0,1,.19-.92L9.83,3.25a.85.85,0,0,1,1.2,0l7.65,7.65a.85.85,0,0,1-.6,1.45h-1.7v5.1a1.7,1.7,0,0,1-1.7,1.7"/></g></g></g></g></svg>