<svg width="669" height="768" viewBox="0 0 669 768" fill="none" xmlns="http://www.w3.org/2000/svg">
<path fill-rule="evenodd" clip-rule="evenodd" d="M534 151H135C99.1015 151 70 180.101 70 216V633C70 668.898 99.1015 698 135 698H534C569.898 698 599 668.898 599 633V216C599 180.101 569.898 151 534 151ZM135 81C60.4416 81 0 141.442 0 216V633C0 707.558 60.4416 768 135 768H534C608.558 768 669 707.558 669 633V216C669 141.442 608.558 81 534 81H135Z" fill="#767676"/>
<path fill-rule="evenodd" clip-rule="evenodd" d="M240 233.87C223.432 233.798 210.059 220.308 210.131 203.739L210.883 30.7389C210.955 14.1705 224.445 0.79759 241.013 0.869626C257.582 0.941662 270.955 14.4314 270.883 30.9998L270.13 204C270.058 220.569 256.569 233.942 240 233.87Z" fill="#767676"/>
<path fill-rule="evenodd" clip-rule="evenodd" d="M429 233.871C412.432 233.8 399.058 220.311 399.129 203.743L399.872 30.7422C399.943 14.1738 413.432 0.800139 430 0.871248C446.569 0.942357 459.942 14.4313 459.871 30.9997L459.129 204C459.058 220.569 445.569 233.942 429 233.871Z" fill="#767676"/>
</svg>
