<?xml version="1.0" encoding="utf-8"?>
<!-- Generator: Adobe Illustrator 24.1.0, SVG Export Plug-In . SVG Version: 6.00 Build 0)  -->
<svg version="1.1" id="Layer_1" xmlns="http://www.w3.org/2000/svg" xmlns:xlink="http://www.w3.org/1999/xlink" x="0px" y="0px"
	 viewBox="0 0 20 17.8" style="enable-background:new 0 0 20 17.8;" xml:space="preserve">
<style type="text/css">
	.st0{opacity:0.5681;}
	.st1{fill:#757575;}
</style>
<desc>Created with Sketch.</desc>
<g id="Symbols" class="st0">
	<g id="ENTRY" transform="translate(-272.000000, -22.000000)">
		<g id="vote-heart" transform="translate(270.000000, 19.000000)">
			<g id="Line_Icons" transform="translate(2.850000, 3.800000)">
				<path id="Shape" class="st1" d="M9.1,17c-0.2,0-0.4-0.1-0.6-0.2c-0.4-0.2-9.4-6-9.4-12.1c0-3.1,2.5-5.6,5.6-5.6
					c1.8,0,3.4,0.9,4.4,2.3c1-1.4,2.7-2.3,4.4-2.3c3.1,0,5.6,2.5,5.6,5.6c0,6.1-9,11.8-9.4,12.1C9.6,16.9,9.4,17,9.1,17z M4.7,1.4
					c-1.8,0-3.3,1.5-3.3,3.3c0,3.7,5.2,8,7.8,9.8c2.6-1.8,7.8-6,7.8-9.8c0-1.8-1.5-3.3-3.3-3.3c-1.9,0-3.3,1.8-3.3,3.3
					c0,0.6-0.5,1.1-1.1,1.1S8,5.4,8,4.8C8,3.2,6.6,1.4,4.7,1.4z"/>
			</g>
		</g>
	</g>
</g>
</svg>
