<?xml version="1.0" encoding="UTF-8"?>
<svg width="15px" height="18px" viewBox="0 0 15 18" version="1.1" xmlns="http://www.w3.org/2000/svg" xmlns:xlink="http://www.w3.org/1999/xlink">
    <!-- Generator: Sketch 44.1 (41455) - http://www.bohemiancoding.com/sketch -->
    <title>Group</title>
    <desc>Created with Sketch.</desc>
    <defs></defs>
    <g id="Page-1" stroke="none" stroke-width="1" fill="none" fill-rule="evenodd">
        <g id="Line-up---Timetable" transform="translate(-443.000000, -654.000000)" fill="#77778C">
            <g id="Group-14" transform="translate(151.000000, 644.000000)">
                <g id="Group-16" transform="translate(279.000000, 0.000000)">
                    <g id="Group" transform="translate(13.000000, 10.000000)">
                        <g id="Shape">
                            <path d="M10.4464286,4.95652174 L13.1266071,4.95652174 C13.2729478,4.95652174 13.3928571,5.07366652 13.3928571,5.21921739 L13.3928571,16.172087 C13.3928571,16.3170583 13.2719378,16.4347826 13.1228571,16.4347826 L1.876875,16.4347826 C1.72790737,16.4347826 1.60714286,16.3171685 1.60714286,16.172087 L1.60714286,5.21921739 C1.60714286,5.07401773 1.7274949,4.95652174 1.87366071,4.95652174 L4.55357143,4.95652174 C4.99737166,4.95652174 5.35714286,4.60613588 5.35714286,4.17391304 C5.35714286,3.74169021 4.99737166,3.39130435 4.55357143,3.39130435 L1.87366071,3.39130435 C0.839023955,3.39130435 0,4.21041754 0,5.21921739 L0,16.172087 C0,17.1816141 0.840306911,18 1.876875,18 L13.1228571,18 C14.1594143,18 15,17.1816248 15,16.172087 L15,5.21921739 C15,4.21030784 14.1616683,3.39130435 13.1266071,3.39130435 L10.4464286,3.39130435 C10.0026283,3.39130435 9.64285714,3.74169021 9.64285714,4.17391304 C9.64285714,4.60613588 10.0026283,4.95652174 10.4464286,4.95652174 L10.4464286,4.95652174 L10.4464286,4.95652174 Z"></path>
                            <path d="M11.0041747,8.82808696 C10.684889,8.52808696 10.1759604,8.53695652 9.86792467,8.84817391 L8.30363896,10.4282609 L8.30363896,0.782608696 C8.30363896,0.350347826 7.94363896,0 7.50006753,0 C7.05622824,0 6.6964961,0.350347826 6.6964961,0.782608696 L6.6964961,10.4282609 L5.13221038,8.84817391 C4.82390681,8.53695652 4.3152461,8.52808696 3.99569253,8.82808696 C3.67640681,9.12782609 3.66703181,9.62347826 3.97506753,9.93443478 L6.9214961,12.9101739 C6.92310324,12.9117391 6.92497824,12.9130435 6.92685324,12.9146087 C6.93060324,12.9182609 6.93408538,12.9216522 6.93783538,12.9253043 C6.93944253,12.9271304 6.94051396,12.9289565 6.9421211,12.9305217 C6.95497824,12.9422609 6.96944253,12.9506087 6.98283538,12.9615652 C6.99247824,12.9696522 7.0021211,12.9774783 7.01203181,12.9850435 C7.0246211,12.9944348 7.0358711,13.005913 7.04846038,13.0142609 C7.0527461,13.0171304 7.05729967,13.0189565 7.06131753,13.0215652 C7.08194253,13.0348696 7.10363896,13.0442609 7.12533538,13.0554783 C7.12881753,13.0573043 7.13229967,13.0593913 7.13604967,13.0612174 C7.15265681,13.0695652 7.16846038,13.0802609 7.18560324,13.0873043 C7.19042467,13.0893913 7.1952461,13.0904348 7.19979967,13.0922609 C7.2233711,13.1013913 7.2477461,13.1068696 7.27185324,13.1141739 C7.29301396,13.119913 7.3133711,13.1285217 7.33479967,13.1329565 C7.33988896,13.134 7.34497824,13.1342609 7.34979967,13.1350435 C7.37417467,13.1394783 7.39881753,13.1402609 7.42319253,13.1426087 C7.4464961,13.1449565 7.46953181,13.1486087 7.49310324,13.1488696 C7.4952461,13.1488696 7.49765681,13.1496522 7.50006753,13.1496522 C7.50247824,13.1496522 7.50488896,13.1488696 7.50703181,13.1488696 C7.53060324,13.1488696 7.55363896,13.1449565 7.57694253,13.1426087 C7.60131753,13.1402609 7.62596038,13.1394783 7.65033538,13.1350435 C7.65515681,13.1342609 7.6602461,13.134 7.66506753,13.1329565 C7.68703181,13.1282609 7.70765681,13.119913 7.72908538,13.113913 C7.75292467,13.1066087 7.77676396,13.1011304 7.80006753,13.0922609 C7.80488896,13.0904348 7.80971038,13.0893913 7.81426396,13.0875652 C7.83542467,13.0786957 7.85471038,13.065913 7.87506753,13.0552174 C7.8964961,13.0442609 7.91819253,13.0348696 7.93881753,13.0215652 C7.94256753,13.0189565 7.9471211,13.0173913 7.95113896,13.0147826 C7.96640681,13.0046087 7.97979967,12.9910435 7.99453181,12.9798261 C8.00283538,12.9735652 8.01060324,12.9670435 8.01863896,12.9605217 C8.03122824,12.950087 8.04542467,12.942 8.0577461,12.9305217 C8.05935324,12.9289565 8.06042467,12.9271304 8.06203181,12.9255652 C8.06551396,12.921913 8.06926396,12.9187826 8.07301396,12.9151304 C8.0746211,12.9133043 8.07676396,12.912 8.07863896,12.9101739 L11.0250675,9.93443478 C11.3331032,9.62347826 11.3237282,9.12782609 11.0041747,8.82808696"></path>
                        </g>
                    </g>
                </g>
            </g>
        </g>
    </g>
</svg>