<svg width="33" height="29" viewBox="0 0 33 29" fill="none" xmlns="http://www.w3.org/2000/svg">
<mask id="mask0_121_37" style="mask-type:alpha" maskUnits="userSpaceOnUse" x="7" y="3" width="21" height="25">
<path d="M17.9509 3.02C19.2609 3 20.5609 3.01 21.8609 3C21.9409 4.53 22.4909 6.09 23.6109 7.17C24.7309 8.28 26.3109 8.79 27.8509 8.96V12.99C26.4109 12.94 24.9609 12.64 23.6509 12.02C23.0809 11.76 22.5509 11.43 22.0309 11.09C22.0209 14.01 22.0409 16.93 22.0109 19.84C21.9309 21.24 21.4709 22.63 20.6609 23.78C19.3509 25.7 17.0809 26.95 14.7509 26.99C13.3209 27.07 11.8909 26.68 10.6709 25.96C8.6509 24.77 7.2309 22.59 7.0209 20.25C7.0009 19.75 6.9909 19.25 7.0109 18.76C7.1909 16.86 8.1309 15.04 9.5909 13.8C11.2509 12.36 13.5709 11.67 15.7409 12.08C15.7609 13.56 15.7009 15.04 15.7009 16.52C14.7109 16.2 13.5509 16.29 12.6809 16.89C12.0509 17.3 11.5709 17.93 11.3209 18.64C11.1109 19.15 11.1709 19.71 11.1809 20.25C11.4209 21.89 13.0009 23.27 14.6809 23.12C15.8009 23.11 16.8709 22.46 17.4509 21.51C17.6409 21.18 17.8509 20.84 17.8609 20.45C17.9609 18.66 17.9209 16.88 17.9309 15.09C17.9409 11.06 17.9209 7.04 17.9509 3.02Z" fill="black"/>
</mask>
<g mask="url(#mask0_121_37)">
<rect x="5" y="-5" width="26" height="32" fill="#BDBDBD"/>
</g>
</svg>
