<svg width="40" height="29" viewBox="0 0 40 29" fill="none" xmlns="http://www.w3.org/2000/svg">
<path fill-rule="evenodd" clip-rule="evenodd" d="M33.5622 5.67734C34.0468 6.16505 34.3946 6.7715 34.571 7.43595C35.2241 9.88705 35.2241 15 35.2241 15C35.2241 15 35.2241 20.113 34.5723 22.564C34.396 23.2286 34.0482 23.8351 33.5637 24.3228C33.0791 24.8105 32.4749 25.1623 31.8116 25.343C29.3761 26 19.6121 26 19.6121 26C19.6121 26 9.84802 26 7.41384 25.343C6.75056 25.1622 6.14641 24.8104 5.66189 24.3227C5.17738 23.835 4.8295 23.2285 4.6531 22.564C4 20.113 4 15 4 15C4 15 4 9.88705 4.6531 7.43595C4.82951 6.77171 5.17723 6.16543 5.66148 5.67775C6.14574 5.19007 6.74956 4.83809 7.41254 4.65701C9.84802 4 19.6121 4 19.6121 4C19.6121 4 29.3761 4 31.8103 4.65701C32.4736 4.83777 33.0777 5.18963 33.5622 5.67734ZM24.5793 15L16.4181 10.358V19.642L24.5793 15Z" fill="#212121"/>
</svg>
