<svg width="33" height="30" viewBox="0 0 33 30" fill="none" xmlns="http://www.w3.org/2000/svg">
<mask id="mask0_121_41" style="mask-type:alpha" maskUnits="userSpaceOnUse" x="4" y="2" width="24" height="24">
<path d="M16 2C12.74 2 12.333 2.015 11.053 2.072C9.775 2.132 8.905 2.333 8.14 2.63C7.351 2.936 6.681 3.347 6.014 4.014C5.347 4.681 4.935 5.35 4.63 6.14C4.333 6.905 4.131 7.775 4.072 9.053C4.012 10.333 4 10.74 4 14C4 17.26 4.015 17.667 4.072 18.947C4.132 20.224 4.333 21.095 4.63 21.86C4.936 22.648 5.347 23.319 6.014 23.986C6.681 24.652 7.35 25.065 8.14 25.37C8.906 25.666 9.776 25.869 11.053 25.928C12.333 25.988 12.74 26 16 26C19.26 26 19.667 25.985 20.947 25.928C22.224 25.868 23.095 25.666 23.86 25.37C24.648 25.064 25.319 24.652 25.986 23.986C26.652 23.319 27.065 22.651 27.37 21.86C27.666 21.095 27.869 20.224 27.928 18.947C27.988 17.667 28 17.26 28 14C28 10.74 27.985 10.333 27.928 9.053C27.868 7.776 27.666 6.904 27.37 6.14C27.064 5.351 26.652 4.681 25.986 4.014C25.319 3.347 24.651 2.935 23.86 2.63C23.095 2.333 22.224 2.131 20.947 2.072C19.667 2.012 19.26 2 16 2ZM16 4.16C19.203 4.16 19.585 4.176 20.85 4.231C22.02 4.286 22.655 4.48 23.077 4.646C23.639 4.863 24.037 5.123 24.459 5.542C24.878 5.962 25.138 6.361 25.355 6.923C25.519 7.345 25.715 7.98 25.768 9.15C25.825 10.416 25.838 10.796 25.838 14C25.838 17.204 25.823 17.585 25.764 18.85C25.703 20.02 25.508 20.655 25.343 21.077C25.119 21.639 24.864 22.037 24.444 22.459C24.025 22.878 23.62 23.138 23.064 23.355C22.644 23.519 21.999 23.715 20.829 23.768C19.555 23.825 19.18 23.838 15.97 23.838C12.759 23.838 12.384 23.823 11.111 23.764C9.94 23.703 9.295 23.508 8.875 23.343C8.306 23.119 7.915 22.864 7.496 22.444C7.075 22.025 6.806 21.62 6.596 21.064C6.431 20.644 6.237 19.999 6.176 18.829C6.131 17.569 6.115 17.18 6.115 13.985C6.115 10.789 6.131 10.399 6.176 9.124C6.237 7.954 6.431 7.31 6.596 6.89C6.806 6.32 7.075 5.93 7.496 5.509C7.915 5.09 8.306 4.82 8.875 4.611C9.295 4.445 9.926 4.25 11.096 4.19C12.371 4.145 12.746 4.13 15.955 4.13L16 4.16ZM16 7.838C12.595 7.838 9.838 10.598 9.838 14C9.838 17.405 12.598 20.162 16 20.162C19.405 20.162 22.162 17.402 22.162 14C22.162 10.595 19.402 7.838 16 7.838ZM16 18C13.79 18 12 16.21 12 14C12 11.79 13.79 10 16 10C18.21 10 20 11.79 20 14C20 16.21 18.21 18 16 18ZM23.846 7.595C23.846 8.39 23.2 9.035 22.406 9.035C21.611 9.035 20.966 8.389 20.966 7.595C20.966 6.801 21.612 6.156 22.406 6.156C23.199 6.155 23.846 6.801 23.846 7.595Z" fill="#E4405F"/>
</mask>
<g mask="url(#mask0_121_41)">
<rect x="3" y="-4" width="26" height="32" fill="#212121"/>
</g>
</svg>
