<svg width="37" height="29" viewBox="0 0 37 29" fill="none" xmlns="http://www.w3.org/2000/svg">
<mask id="mask0_121_38" style="mask-type:alpha" maskUnits="userSpaceOnUse" x="3" y="3" width="32" height="24">
<path d="M29.655 4.98953C27.6136 4.05248 25.4593 3.38427 23.246 3.00165C23.2259 2.9979 23.2051 3.00058 23.1866 3.00932C23.1681 3.01806 23.1529 3.03241 23.143 3.05032C22.8662 3.5427 22.5596 4.1849 22.3449 4.68961C19.9248 4.32725 17.5169 4.32725 15.1465 4.68961C14.9319 4.17362 14.6141 3.5427 14.3361 3.05032C14.3258 3.03282 14.3105 3.01882 14.2921 3.01016C14.2737 3.0015 14.2532 2.99858 14.2331 3.00178C12.0195 3.38352 9.86507 4.05166 7.82394 4.98939C7.80647 4.99686 7.79176 5.00955 7.78182 5.02573C3.6998 11.1242 2.58149 17.0728 3.13015 22.9476C3.1317 22.962 3.13612 22.9759 3.14316 22.9885C3.15019 23.0012 3.15968 23.0123 3.17108 23.0212C5.86427 24.9991 8.47309 26.1998 11.0335 26.9956C11.0534 27.0016 11.0747 27.0013 11.0944 26.9948C11.1141 26.9883 11.1314 26.976 11.144 26.9594C11.7496 26.1324 12.2894 25.2602 12.7524 24.3431C12.7588 24.3306 12.7624 24.3168 12.7631 24.3027C12.7638 24.2887 12.7614 24.2746 12.7563 24.2615C12.7511 24.2484 12.7432 24.2366 12.7332 24.2267C12.7231 24.2169 12.7111 24.2093 12.6979 24.2044C11.8414 23.8796 11.026 23.4835 10.2416 23.0338C10.2273 23.0254 10.2153 23.0136 10.2066 22.9994C10.198 22.9853 10.1929 22.9692 10.1919 22.9527C10.1909 22.9361 10.194 22.9196 10.201 22.9045C10.2079 22.8894 10.2184 22.8763 10.2316 22.8662C10.3967 22.7425 10.5619 22.6139 10.7194 22.4839C10.7334 22.4724 10.7504 22.465 10.7684 22.4625C10.7864 22.4601 10.8047 22.4627 10.8212 22.4702C15.9743 24.8229 21.553 24.8229 26.6453 22.4702C26.6618 22.4623 26.6803 22.4593 26.6986 22.4615C26.7168 22.4637 26.734 22.471 26.7482 22.4826C26.9059 22.6125 27.071 22.7425 27.2373 22.8662C27.2506 22.8762 27.2612 22.8892 27.2682 22.9042C27.2752 22.9192 27.2784 22.9357 27.2776 22.9522C27.2767 22.9688 27.2718 22.9849 27.2633 22.999C27.2548 23.0132 27.2429 23.0251 27.2287 23.0336C26.444 23.492 25.622 23.8832 24.7714 24.2031C24.7582 24.2082 24.7462 24.216 24.7362 24.226C24.7262 24.236 24.7184 24.248 24.7134 24.2612C24.7083 24.2744 24.7062 24.2885 24.7069 24.3026C24.7077 24.3168 24.7115 24.3305 24.718 24.3431C25.1908 25.2589 25.7307 26.131 26.3251 26.9581C26.3373 26.9752 26.3545 26.988 26.3743 26.9947C26.3941 27.0014 26.4156 27.0018 26.4356 26.9956C29.0084 26.1997 31.6172 24.999 34.3104 23.0212C34.322 23.0127 34.3316 23.0019 34.3387 22.9894C34.3458 22.9769 34.3501 22.9631 34.3514 22.9488C35.0079 16.1568 33.2517 10.257 29.6959 5.02692C29.6872 5.00992 29.6727 4.99675 29.655 4.98953ZM13.5219 19.3704C11.9705 19.3704 10.6921 17.946 10.6921 16.1968C10.6921 14.4477 11.9457 13.0233 13.522 13.0233C15.1105 13.0233 16.3764 14.4601 16.3517 16.1969C16.3517 17.946 15.0981 19.3704 13.5219 19.3704ZM23.9845 19.3704C22.4331 19.3704 21.1547 17.946 21.1547 16.1968C21.1547 14.4477 22.4082 13.0233 23.9845 13.0233C25.573 13.0233 26.8389 14.4601 26.8141 16.1969C26.8141 17.946 25.573 19.3704 23.9845 19.3704Z" fill="#5865F2"/>
</mask>
<g mask="url(#mask0_121_38)">
<rect x="0.376091" y="-11.4315" width="34.1109" height="41.9826" fill="#212121"/>
</g>
</svg>
