<svg width="34" height="24" viewBox="0 0 34 24" fill="none" xmlns="http://www.w3.org/2000/svg">
<path fill-rule="evenodd" clip-rule="evenodd" d="M27.7226 5.28926C28.095 5.66414 28.3624 6.13027 28.498 6.641C29 8.525 29 12.455 29 12.455C29 12.455 29 16.385 28.499 18.269C28.3635 18.7798 28.0961 19.246 27.7237 19.6208C27.3513 19.9957 26.8869 20.2662 26.377 20.405C24.505 20.91 17 20.91 17 20.91C17 20.91 9.495 20.91 7.624 20.405C7.11418 20.2661 6.64981 19.9956 6.27739 19.6207C5.90498 19.2459 5.63759 18.7797 5.502 18.269C5 16.385 5 12.455 5 12.455C5 12.455 5 8.525 5.502 6.641C5.63759 6.13044 5.90486 5.66443 6.27708 5.28958C6.64929 4.91473 7.11341 4.64419 7.623 4.505C9.495 4 17 4 17 4C17 4 24.505 4 26.376 4.505C26.8858 4.64394 27.3502 4.91439 27.7226 5.28926ZM20.818 12.455L14.545 8.887V16.023L20.818 12.455Z" fill="#212121"/>
</svg>
