<svg width="36" height="20" viewBox="0 0 36 20" fill="none" xmlns="http://www.w3.org/2000/svg">
<mask id="mask0_121_38" style="mask-type:alpha" maskUnits="userSpaceOnUse" x="7" y="0" width="24" height="19">
<path d="M27.317 1.51646C25.761 0.80222 24.119 0.292902 22.4319 0.001257C22.4166 -0.00160203 22.4007 0.000444576 22.3867 0.00710541C22.3726 0.0137662 22.3609 0.0247021 22.3534 0.0383571C22.1424 0.413657 21.9087 0.903157 21.7451 1.28786C19.9004 1.01166 18.0651 1.01166 16.2583 1.28786C16.0947 0.894557 15.8525 0.413657 15.6406 0.0383571C15.6328 0.0250132 15.6211 0.014345 15.6071 0.00774461C15.5931 0.00114425 15.5774 -0.00108161 15.5621 0.00135713C13.8749 0.292324 12.2327 0.801599 10.6769 1.51636C10.6636 1.52204 10.6524 1.53172 10.6448 1.54406C7.5334 6.19246 6.681 10.7266 7.0992 15.2045C7.10039 15.2154 7.10376 15.226 7.10912 15.2357C7.11448 15.2453 7.12171 15.2538 7.1304 15.2606C9.1832 16.7682 11.1717 17.6834 13.1233 18.29C13.1385 18.2945 13.1547 18.2943 13.1697 18.2893C13.1848 18.2844 13.198 18.275 13.2075 18.2624C13.6691 17.632 14.0806 16.9672 14.4335 16.2682C14.4384 16.2586 14.4411 16.2481 14.4416 16.2374C14.4421 16.2267 14.4404 16.216 14.4364 16.206C14.4325 16.196 14.4265 16.1869 14.4188 16.1794C14.4112 16.1719 14.402 16.1662 14.3919 16.1625C13.7391 15.9149 13.1176 15.613 12.5197 15.2702C12.5088 15.2638 12.4996 15.2548 12.493 15.244C12.4864 15.2332 12.4826 15.221 12.4818 15.2083C12.4811 15.1957 12.4835 15.1831 12.4887 15.1716C12.494 15.1601 12.502 15.1501 12.5121 15.1425C12.6379 15.0482 12.7638 14.9502 12.8839 14.8511C12.8946 14.8423 12.9075 14.8366 12.9212 14.8348C12.9349 14.8329 12.9489 14.8349 12.9615 14.8406C16.8893 16.6339 21.1415 16.6339 25.0229 14.8406C25.0355 14.8345 25.0496 14.8322 25.0635 14.8339C25.0774 14.8356 25.0906 14.8412 25.1014 14.8501C25.2216 14.9491 25.3474 15.0482 25.4742 15.1425C25.4843 15.15 25.4924 15.16 25.4977 15.1714C25.5031 15.1828 25.5055 15.1954 25.5049 15.208C25.5042 15.2206 25.5005 15.2329 25.494 15.2437C25.4875 15.2545 25.4784 15.2636 25.4676 15.2701C24.8695 15.6194 24.2429 15.9176 23.5946 16.1615C23.5845 16.1653 23.5754 16.1712 23.5678 16.1789C23.5602 16.1865 23.5542 16.1956 23.5504 16.2057C23.5466 16.2158 23.5449 16.2265 23.5455 16.2373C23.5461 16.2481 23.549 16.2586 23.5539 16.2682C23.9143 16.9662 24.3258 17.631 24.7789 18.2614C24.7882 18.2744 24.8013 18.2841 24.8164 18.2893C24.8315 18.2944 24.8478 18.2946 24.8631 18.29C26.8241 17.6833 28.8126 16.7681 30.8654 15.2606C30.8742 15.2541 30.8816 15.2458 30.887 15.2363C30.8924 15.2268 30.8957 15.2163 30.8967 15.2054C31.3971 10.0284 30.0585 5.53146 27.3482 1.54496C27.3416 1.53201 27.3305 1.52196 27.317 1.51646ZM15.02 12.4779C13.8375 12.4779 12.8631 11.3922 12.8631 10.0589C12.8631 8.72566 13.8186 7.63996 15.0201 7.63996C16.2309 7.63996 17.1958 8.73516 17.1769 10.059C17.1769 11.3922 16.2214 12.4779 15.02 12.4779ZM22.9948 12.4779C21.8123 12.4779 20.8379 11.3922 20.8379 10.0589C20.8379 8.72566 21.7933 7.63996 22.9948 7.63996C24.2056 7.63996 25.1705 8.73516 25.1516 10.059C25.1516 11.3922 24.2056 12.4779 22.9948 12.4779Z" fill="#5865F2"/>
</mask>
<g mask="url(#mask0_121_38)">
<rect x="5" y="-11" width="26" height="32" fill="#212121"/>
</g>
</svg>
