<svg width="800" height="800" viewBox="0 0 800 800" fill="none" xmlns="http://www.w3.org/2000/svg">
<g clip-path="url(#clip0_22_2)">
<path d="M400 0C235.502 0 101.675 133.88 101.675 298.443C101.675 543.631 370.306 783.036 381.745 793.11C386.96 797.702 393.479 800.003 400 800.003C406.521 800.003 413.04 797.705 418.257 793.11C429.692 783.038 698.325 543.634 698.325 298.443C698.325 133.88 564.498 0 400 0ZM400 734.516C340.609 676.964 156.921 483.933 156.921 298.443C156.921 164.345 265.966 55.2458 400 55.2458C534.034 55.2458 643.079 164.345 643.079 298.443C643.079 483.93 459.391 676.962 400 734.516Z" fill="#767676"/>
<path d="M400 159.416C323.844 159.416 261.888 221.783 261.888 298.443C261.888 375.106 323.844 437.471 400 437.471C476.156 437.471 538.112 375.106 538.112 298.443C538.112 221.783 476.156 159.416 400 159.416ZM400 382.225C354.306 382.225 317.131 344.641 317.131 298.443C317.131 252.248 354.306 214.661 400 214.661C445.694 214.661 482.869 252.245 482.869 298.443C482.869 344.641 445.694 382.225 400 382.225Z" fill="#767676"/>
</g>
<defs>
<clipPath id="clip0_22_2">
<rect width="800" height="800" fill="white"/>
</clipPath>
</defs>
</svg>
