<?xml version="1.0" encoding="utf-8"?>
<!-- Generator: Adobe Illustrator 23.0.0, SVG Export Plug-In . SVG Version: 6.00 Build 0)  -->
<svg version="1.1" id="Layer_1" xmlns="http://www.w3.org/2000/svg" xmlns:xlink="http://www.w3.org/1999/xlink" x="0px" y="0px"
	 viewBox="0 0 239 139" style="enable-background:new 0 0 239 139;" xml:space="preserve">
<style type="text/css">
	.st0{fill-rule:evenodd;clip-rule:evenodd;fill:#FFFFFE;}
	.st1{filter:url(#Adobe_OpacityMaskFilter);}
	.st2{fill-rule:evenodd;clip-rule:evenodd;fill:#FFFFFF;}
	.st3{mask:url(#mask-2_1_);fill-rule:evenodd;clip-rule:evenodd;fill:#FFFFFE;}
	.st4{filter:url(#Adobe_OpacityMaskFilter_1_);}
	.st5{mask:url(#mask-2_2_);fill-rule:evenodd;clip-rule:evenodd;fill:#FFFFFE;}
	.st6{filter:url(#Adobe_OpacityMaskFilter_2_);}
	.st7{mask:url(#mask-4_1_);fill-rule:evenodd;clip-rule:evenodd;fill:#FFFFFE;}
	.st8{filter:url(#Adobe_OpacityMaskFilter_3_);}
	.st9{mask:url(#mask-4_2_);fill-rule:evenodd;clip-rule:evenodd;fill:#FFFFFE;}
	.st10{filter:url(#Adobe_OpacityMaskFilter_4_);}
	.st11{mask:url(#mask-6_1_);fill-rule:evenodd;clip-rule:evenodd;fill:#FFFFFE;}
	.st12{filter:url(#Adobe_OpacityMaskFilter_5_);}
	.st13{mask:url(#mask-6_2_);fill-rule:evenodd;clip-rule:evenodd;fill:#FFFFFE;}
	.st14{filter:url(#Adobe_OpacityMaskFilter_6_);}
	.st15{mask:url(#mask-6_3_);fill-rule:evenodd;clip-rule:evenodd;fill:#FFFFFE;}
	.st16{filter:url(#Adobe_OpacityMaskFilter_7_);}
	.st17{mask:url(#mask-8_1_);fill-rule:evenodd;clip-rule:evenodd;fill:#FFFFFE;}
	.st18{filter:url(#Adobe_OpacityMaskFilter_8_);}
	.st19{mask:url(#mask-8_2_);fill-rule:evenodd;clip-rule:evenodd;fill:#FFFFFE;}
	.st20{filter:url(#Adobe_OpacityMaskFilter_9_);}
	.st21{mask:url(#mask-10_1_);fill-rule:evenodd;clip-rule:evenodd;fill:#FFFFFE;}
	.st22{filter:url(#Adobe_OpacityMaskFilter_10_);}
	.st23{mask:url(#mask-10_2_);fill-rule:evenodd;clip-rule:evenodd;fill:#FFFFFE;}
	.st24{filter:url(#Adobe_OpacityMaskFilter_11_);}
	.st25{mask:url(#mask-12_1_);fill-rule:evenodd;clip-rule:evenodd;fill:#FFFFFE;}
	.st26{filter:url(#Adobe_OpacityMaskFilter_12_);}
	.st27{mask:url(#mask-12_2_);fill-rule:evenodd;clip-rule:evenodd;fill:#FFFFFE;}
	.st28{filter:url(#Adobe_OpacityMaskFilter_13_);}
	.st29{mask:url(#mask-12_3_);fill-rule:evenodd;clip-rule:evenodd;fill:#FFFFFE;}
	.st30{filter:url(#Adobe_OpacityMaskFilter_14_);}
	.st31{mask:url(#mask-14_1_);fill-rule:evenodd;clip-rule:evenodd;fill:#FFFFFE;}
	.st32{filter:url(#Adobe_OpacityMaskFilter_15_);}
	.st33{mask:url(#mask-14_2_);fill-rule:evenodd;clip-rule:evenodd;fill:#FFFFFE;}
	.st34{filter:url(#Adobe_OpacityMaskFilter_16_);}
	.st35{mask:url(#mask-14_3_);fill-rule:evenodd;clip-rule:evenodd;fill:#FFFFFE;}
	.st36{filter:url(#Adobe_OpacityMaskFilter_17_);}
	.st37{mask:url(#mask-14_4_);fill-rule:evenodd;clip-rule:evenodd;fill:#FFFFFE;}
	.st38{filter:url(#Adobe_OpacityMaskFilter_18_);}
	.st39{mask:url(#mask-16_1_);fill-rule:evenodd;clip-rule:evenodd;fill:#FFFFFE;}
	.st40{filter:url(#Adobe_OpacityMaskFilter_19_);}
	.st41{mask:url(#mask-16_2_);fill-rule:evenodd;clip-rule:evenodd;fill:#FFFFFE;}
	.st42{filter:url(#Adobe_OpacityMaskFilter_20_);}
	.st43{mask:url(#mask-16_3_);fill-rule:evenodd;clip-rule:evenodd;fill:#FFFFFE;}
</style>
<title>TML_LOGO_2016_VECTOR_FULL-WHITE</title>
<desc>Created with Sketch.</desc>
<g id="Page-1">
	<g transform="translate(-601.000000, -2734.000000)">
		<g id="Footer" transform="translate(505.000000, 2734.000000)">
			<g id="TML_LOGO_2016_VECTOR_FULL-WHITE" transform="translate(96.000000, 0.000000)">
				<path id="Fill-1" class="st0" d="M119.3,31.1c-3.3,0-5.9-2.6-5.9-5.8c0-3.2,2.6-5.8,5.9-5.8c3.3,0,5.9,2.6,5.9,5.8
					C125.2,28.5,122.6,31.1,119.3,31.1z M132.2,25.2c0,0-4.3-6.8-12.9-6.8c0,0,0,0,0,0c0,0,0,0,0,0c-8.6,0-12.9,6.8-12.9,6.8
					s6,6.8,12.9,6.8c0,0,0,0,0,0c0,0,0,0,0,0C126.2,32,132.2,25.2,132.2,25.2L132.2,25.2z"/>
				<path id="Fill-2" class="st0" d="M118,21.9c-1.1,0-2,0.9-2,2.1c0,1.2,0.9,2.1,2,2.1c1.1,0,2-0.9,2-2.1
					C120,22.8,119.1,21.9,118,21.9"/>
				<path id="Fill-3" class="st0" d="M78.5,47.1c0.9,1.4,2,2.7,3.1,3.9c0,0.2,0,0.4,0,0.6c0,20.8,16.9,37.7,37.7,37.7
					c20.8,0,37.7-16.9,37.7-37.7c0-0.2,0-0.4,0-0.6c1.2-1.2,2.2-2.5,3.1-3.9c0.3,2.1,0.4,4.2,0.4,6.4c0,31.9-41.3,44.6-41.3,44.6
					S78,86.3,78,53.5C78,51.4,78.2,49.2,78.5,47.1z M109.8,36c6.7,4.3,8.4,10.3,8.4,21.2c0,24.8-9.7,27.9-9.7,27.9
					s-16.6-5-16.6-16.4c0-6.7,9.6-8.7,9.6-8.7S57.8,47.7,88,16.3C88.5,23.7,102.5,31.3,109.8,36z M144,23
					c-6.6-5.7-15.2-9.2-24.7-9.2c-9.4,0-18,3.5-24.6,9.2c-0.9-0.9-1.8-1.7-2.5-2.6c2.4-3,3.3-6.5,3.2-8.3c2,1.6,6,1.8,10.4,0.3
					c0.2-0.1,0.4-0.1,0.7-0.2c4.5-1.6,9.4-4.9,12.8-9.8c3.4,4.9,8.1,8.1,12.6,9.8c0.4,0.1,0.8,0.3,1.2,0.4c4.2,1.3,8.1,1.1,10-0.5
					c0,1.8,0.8,5.3,3.3,8.4C145.7,21.3,144.9,22.2,144,23z M119.3,43.1c-1.5-4.5-3.3-7-8.7-10.6c-6.7-4.4-7.6-7.4-7.6-7.4
					s4.3-9.1,16.2-9.1c0,0,0,0,0,0c0,0,0,0,0,0c12,0,16.2,9.1,16.2,9.1s-0.9,3-7.6,7.4C122.6,36.1,120.8,38.6,119.3,43.1z
					 M146.7,68.7c0,11.5-16.6,16.4-16.6,16.4s-9.7-3.1-9.7-27.9c0-10.9,1.7-16.9,8.4-21.2c7.3-4.7,21.3-12.4,21.7-19.8
					C180.8,47.7,137.1,60,137.1,60S146.7,62,146.7,68.7z M162.6,41.5c2.2-8.1-1.4-17.1-10.6-26.7c-0.4-0.4-0.9-0.6-1.4-0.6
					c-0.2,0-0.5,0-0.7,0.1c-0.7,0.3-1.2,1-1.3,1.7c-0.1,0.9-0.4,1.8-0.9,2.7l0,0l0,0c-1.8-2.4-2.6-5.2-2.6-6.7
					c0-0.8-0.4-1.5-1.1-1.8c-0.3-0.1-0.6-0.2-0.9-0.2c-0.5,0-0.9,0.2-1.3,0.4c-0.7,0.5-2,0.9-3.5,0.9c-1.4,0-3-0.3-4.6-0.7
					c-0.4-0.1-0.8-0.3-1.2-0.4c-2.7-1-7.8-3.5-11.6-9c-0.4-0.5-1-0.9-1.6-0.9c-0.7,0-1.3,0.3-1.6,0.9c-3.9,5.6-9.1,8.1-11.8,9.1
					c-0.2,0.1-0.5,0.1-0.6,0.2c-1.7,0.6-3.5,0.9-5.1,0.9c-1.6,0-2.8-0.3-3.5-0.9c-0.3-0.3-0.8-0.4-1.3-0.4c-0.3,0-0.6,0.1-0.9,0.2
					c-0.7,0.3-1.1,1.1-1.1,1.8c0,1.5-0.7,4.3-2.5,6.7l0,0l0,0c-0.5-1-0.8-1.9-0.9-2.7c0-0.8-0.6-1.5-1.3-1.7
					c-0.2-0.1-0.4-0.1-0.7-0.1c-0.5,0-1.1,0.2-1.4,0.6C77.4,24.5,73.8,33.4,76,41.5c0.3,1.3,0.9,2.6,1.5,3.8l0,0l0,0
					c-0.6,0.3-1,0.9-1.1,1.5c-0.3,2.2-0.4,4.4-0.4,6.7c0,14.1,7.4,26.6,21.5,36.3c10.5,7.2,20.8,10.2,21.2,10.3
					c0.2,0.1,0.4,0.1,0.5,0.1c0.2,0,0.4,0,0.6-0.1c0.4-0.1,10.7-3.3,21.2-10.6c14.1-9.8,21.5-22.2,21.5-35.9c0-2.2-0.2-4.4-0.4-6.6
					c-0.1-0.6-0.5-1.2-1.1-1.5l0,0l0,0C161.7,44.1,162.2,42.8,162.6,41.5L162.6,41.5z"/>
				<path id="Fill-4" class="st0" d="M27.4,126c-3.3,0-5.9-2.8-5.9-6.2c0-3.4,2.6-6.2,5.9-6.2c3.3,0,5.9,2.8,5.9,6.2
					C33.3,123.3,30.7,126,27.4,126z M27.4,112c-4.3,0-7.7,3.5-7.7,7.7c0,4.3,3.4,7.8,7.7,7.8c4.3,0,7.7-3.5,7.7-7.8
					C35.2,115.5,31.8,112,27.4,112L27.4,112z"/>
				<path id="Fill-5" class="st0" d="M72.8,126c-3.3,0-5.9-2.8-5.9-6.2c0-3.4,2.6-6.2,5.9-6.2c3.3,0,5.9,2.8,5.9,6.2
					C78.7,123.3,76.1,126,72.8,126z M72.8,112c-4.3,0-7.7,3.5-7.7,7.7c0,4.3,3.4,7.8,7.7,7.8c4.3,0,7.7-3.5,7.7-7.8
					C80.5,115.5,77.1,112,72.8,112L72.8,112z"/>
				<path id="Fill-6" class="st0" d="M92,119.8h-1.4v-6h1.2c2.3,0,3.4,1.4,3.4,3C95.2,118.5,93.8,119.8,92,119.8z M97,116.7
					c0-2.5-1.8-4.4-5.1-4.4h-2.3c0,0,0,0,0,0h-0.1c0,0-1.5,0-1.5,0c0.5,0.5,0.8,1.9,0.8,3.7c0,0.1,0,0.1,0,0.2v7.3
					c0,1.5,0,3.1-0.1,3.8h1.9c-0.1-0.7-0.1-2.3-0.1-3.8v-2.4h1.2c0.2,0,0.5,0,0.7,0c1.3,2.2,3.1,4.7,4.3,6.3h2.4
					c-1.7-1.6-3.6-4.6-5.2-6.6C95.5,120.3,97,119,97,116.7L97,116.7z"/>
				<path id="Fill-7" class="st0" d="M130.3,126c-3.3,0-5.9-2.8-5.9-6.2c0-3.4,2.6-6.2,5.9-6.2c3.3,0,5.9,2.8,5.9,6.2
					C136.2,123.3,133.5,126,130.3,126z M130.3,112c-4.3,0-7.7,3.5-7.7,7.7c0,4.3,3.4,7.8,7.7,7.8c4.3,0,7.7-3.5,7.7-7.8
					C138,115.5,134.6,112,130.3,112L130.3,112z"/>
				<path id="Fill-8" class="st0" d="M172.8,125.8v-9.6c0-1.5,0-3.3,0.1-3.9l-2.6,0c0.5,0.5,0.8,1.9,0.8,3.8h0c0,0,0,0.1,0,0.1v3.2
					h0v4c0,1,0,2.7-0.1,3.9h4.5c1.5,0,2.8,0,3.5,0.1v-1.7c-0.7,0-2,0.1-3.5,0.1H172.8"/>
				<path id="Fill-9" class="st0" d="M189.1,120.8l2.3-5.5l2.3,5.5H189.1z M191.7,112h-0.5l-5.2,12c-0.5,1.2-1.1,2.4-1.6,3.3h2
					c0.2-0.6,0.5-1.4,1-2.5l1.1-2.6h5.7l1.1,2.6c0.4,1,0.8,1.8,1,2.5h2.3c-0.5-0.9-1.1-2.1-1.6-3.3L191.7,112L191.7,112z"/>
				<path id="Fill-10" class="st0" d="M231,125.8h-2.2v-12.1h2.2c3.3,0,5.8,2.7,5.8,6C236.8,123.1,234.2,125.8,231,125.8z
					 M231.1,112.3h-3.4l0,0c0,0,0,0,0,0c0,0,0,0,0,0c-0.1,0-1.5,0-1.5,0c0.5,0.5,0.8,1.8,0.8,3.7c0,0,0,0.1,0,0.1h0c0,0,0,0.1,0,0.1
					v3.2h0v4c0,1.5,0,3.2-0.1,3.9h4.2c4.1,0,7.5-3.4,7.5-7.5C238.6,115.7,235.2,112.3,231.1,112.3L231.1,112.3z"/>
				<path id="Fill-11" class="st0" d="M109.4,119.8H108v-6h1.2c2.3,0,3.4,1.4,3.4,3C112.6,118.5,111.2,119.8,109.4,119.8z
					 M114.4,116.7c0-2.5-1.8-4.4-5.1-4.4H107v0h-0.1c0,0-1.5,0-1.5,0c0.5,0.5,0.8,1.8,0.8,3.6c0,0.1,0,0.1,0,0.2h0c0,0,0,0.1,0,0.1
					v3.2h0v4.1c0,1.5,0,3.1-0.1,3.8h1.9c-0.1-0.7-0.1-2.3-0.1-3.8v-2.4h1.2c0.2,0,0.5,0,0.7,0c1.3,2.2,3.1,4.7,4.3,6.3h2.4
					c-1.7-1.6-3.6-4.6-5.2-6.6C113,120.3,114.4,119,114.4,116.7L114.4,116.7z"/>
				<path id="Fill-12" class="st0" d="M57.8,125.6c-0.1-0.5-0.1-1.1-0.2-1.8L56.3,112h-0.5L50,124.5L44.4,112h-0.5l-1.6,11.3
					c-0.1,0.8-0.2,1.6-0.3,2.3c-0.1,0.8-0.3,1.3-0.6,1.7l1.3,0h1c0-0.8,0.1-1.9,0.3-3.2l1-7.8l4.8,11.2h0.4l4.9-11.2l0.7,8
					c0.1,1.5,0.2,2.3,0.2,3l2.4,0C58.1,127,57.9,126.5,57.8,125.6C57.8,125.6,57.8,125.6,57.8,125.6"/>
				<path id="Fill-13" class="st0" d="M162,112.3c-0.2,0.5-0.4,1.2-1.2,2.9l-4,9.3l-2.5-5.7l1.6-3.4c0.7-1.6,1.2-2.6,1.5-3.1h-1.9
					c-0.2,0.7-0.5,1.4-1.1,2.8l-0.8,1.9l-0.8-1.9c-0.7-1.6-1-2.2-1.2-2.9h-2c0.5,0.9,0.9,1.5,1.6,3l1.7,3.7l-2.4,5.6l-4.3-9.7
					c-0.5-1-0.9-1.9-1.1-2.6l-2.4,0c0.2,0.2,0.6,0.5,0.9,1.1c0.3,0.6,0.6,1.2,1,2l5.7,12.3h0.3l3.2-7l3.2,7h0.2l5.6-12.2
					c0.2-0.4,0.4-0.8,0.5-1.1c0.1-0.3,0.3-0.6,0.4-0.9c0.3-0.5,0.6-0.9,0.9-1.1L162,112.3"/>
				<path id="Fill-14" class="st0" d="M217.8,116.1c0-1.9,0.1-3.3,0.6-3.8l-2.4,0c0,0.9,0.1,2.7,0.1,3.9v7.5l-8.1-9.6
					c-0.7-0.8-1.1-1.3-1.8-2.1h-0.4c0,1.2,0.1,2.9,0.1,4.2v7.9c0,1.2,0,2.6-0.1,3.2h1.9c0-0.6-0.1-2-0.1-3.2l0-8.3l8.3,9.8
					c0.7,0.8,1.1,1.2,1.6,1.9h0.4c-0.1-1.3-0.1-2.3-0.1-3.2v-8.2C217.8,116.2,217.8,116.1,217.8,116.1"/>
				<path id="Fill-15" class="st0" d="M15,112.2c-0.3,0.1-0.8,0.1-1.4,0.1c-0.6,0-1.3,0-2.2,0H4.3c-0.9,0-1.7,0-2.2,0
					c-0.6,0-1-0.1-1.4-0.1c-0.1,1-0.3,1.8-0.7,2.1c0.5-0.2,1.1-0.3,2-0.3c0.4,0,0.9-0.1,1.5-0.1c0.9,0,2.7,0,3.3,0
					c0,0.8,0.1,1.9,0.1,2.8v6.8c0,1.5,0,3.2-0.1,3.9h1.9c-0.1-0.7-0.1-2.4-0.1-3.9v-6.8c0-0.9,0-2,0-2.8c0.6,0,2.5,0,3.5,0
					c0.5,0,1,0.1,1.5,0.1c0.9,0.1,1.6,0.2,2,0.3c0,0,0,0,0,0C15.3,113.9,15.1,113.2,15,112.2"/>
				<path id="Fill-16" class="st0" d="M15.8,138.3h0.6c0.3,0,0.6,0,0.8,0v0.4c-0.1,0-0.4,0-0.8,0h-1c0-0.3,0-0.6,0-0.8v-1.5
					c0-0.3,0-0.7,0-0.8h0.4c0,0.1,0,0.5,0,0.8V138.3"/>
				<g id="Group-20" transform="translate(19.500000, 135.000000)">
					<g id="Clip-18">
					</g>
					<defs>
						<filter id="Adobe_OpacityMaskFilter" filterUnits="userSpaceOnUse" x="0.8" y="0.4" width="0.4" height="3.2">
							<feColorMatrix  type="matrix" values="1 0 0 0 0  0 1 0 0 0  0 0 1 0 0  0 0 0 1 0"/>
						</filter>
					</defs>
					<mask maskUnits="userSpaceOnUse" x="0.8" y="0.4" width="0.4" height="3.2" id="mask-2_1_">
						<g class="st1">
							<polygon id="path-1_1_" class="st2" points="0.7,0.4 7.5,0.4 7.5,3.7 0.7,3.7 							"/>
						</g>
					</mask>
					<path id="Fill-17" class="st3" d="M1.2,2.8c0,0.3,0,0.7,0,0.8H0.8c0-0.1,0-0.5,0-0.8V1.3c0-0.3,0-0.7,0-0.8h0.4
						c0,0.1,0,0.5,0,0.8V2.8"/>
					<defs>
						<filter id="Adobe_OpacityMaskFilter_1_" filterUnits="userSpaceOnUse" x="4.5" y="0.4" width="3" height="3.3">
							<feColorMatrix  type="matrix" values="1 0 0 0 0  0 1 0 0 0  0 0 1 0 0  0 0 0 1 0"/>
						</filter>
					</defs>
					<mask maskUnits="userSpaceOnUse" x="4.5" y="0.4" width="3" height="3.3" id="mask-2_2_">
						<g class="st4">
							<polygon id="path-1_2_" class="st2" points="0.7,0.4 7.5,0.4 7.5,3.7 0.7,3.7 							"/>
						</g>
					</mask>
					<path id="Fill-19" class="st5" d="M6,3l0.8-2C6.9,0.8,7,0.6,7.1,0.4h0.4C7.4,0.6,7.3,0.9,7.2,1.1L6.1,3.8H6L4.9,1.1
						C4.7,0.9,4.6,0.6,4.5,0.4H5C5,0.6,5.1,0.8,5.2,1L6,3"/>
				</g>
				<path id="Fill-21" class="st0" d="M30.6,138.4H31c0.3,0,0.7,0,0.8,0v0.4c-0.1,0-0.5,0-0.8,0h-0.8c0-0.3,0-0.6,0-0.8v-1.6
					c0-0.3,0-0.7,0-0.8H31c0.3,0,0.7,0,0.8,0v0.4c-0.1,0-0.5,0-0.8,0h-0.4v1H31c0.3,0,0.6,0,0.7,0v0.4c-0.1,0-0.4,0-0.7,0h-0.4
					V138.4"/>
				<g id="Group-25" transform="translate(38.250000, 135.000000)">
					<g id="Clip-23">
					</g>
					<defs>
						<filter id="Adobe_OpacityMaskFilter_2_" filterUnits="userSpaceOnUse" x="0.6" y="0.4" width="2.7" height="3.3">
							<feColorMatrix  type="matrix" values="1 0 0 0 0  0 1 0 0 0  0 0 1 0 0  0 0 0 1 0"/>
						</filter>
					</defs>
					<mask maskUnits="userSpaceOnUse" x="0.6" y="0.4" width="2.7" height="3.3" id="mask-4_1_">
						<g class="st6">
							<polygon id="path-3_1_" class="st2" points="0.6,0.4 9.5,0.4 9.5,3.7 0.6,3.7 							"/>
						</g>
					</mask>
					<path id="Fill-22" class="st7" d="M2.5,0.4c0.3,0,0.7,0,0.8,0v0.4c-0.1,0-0.5,0-0.8,0H2.1c0,0.2,0,0.4,0,0.6v1.5
						c0,0.3,0,0.7,0,0.8H1.7c0-0.1,0-0.5,0-0.8V1.4c0-0.2,0-0.4,0-0.6H1.4c-0.3,0-0.7,0-0.8,0V0.4c0.1,0,0.5,0,0.8,0H2.5"/>
					<defs>
						<filter id="Adobe_OpacityMaskFilter_3_" filterUnits="userSpaceOnUse" x="6.2" y="0.4" width="3.4" height="3.4">
							<feColorMatrix  type="matrix" values="1 0 0 0 0  0 1 0 0 0  0 0 1 0 0  0 0 0 1 0"/>
						</filter>
					</defs>
					<mask maskUnits="userSpaceOnUse" x="6.2" y="0.4" width="3.4" height="3.4" id="mask-4_2_">
						<g class="st8">
							<polygon id="path-3_2_" class="st2" points="0.6,0.4 9.5,0.4 9.5,3.7 0.6,3.7 							"/>
						</g>
					</mask>
					<path id="Fill-24" class="st9" d="M7.9,3.4c0.7,0,1.3-0.6,1.3-1.3c0-0.7-0.6-1.3-1.3-1.3C7.2,0.7,6.6,1.3,6.6,2
						C6.6,2.8,7.2,3.4,7.9,3.4z M7.9,0.4c0.9,0,1.7,0.8,1.7,1.7c0,0.9-0.7,1.7-1.7,1.7C6.9,3.7,6.2,3,6.2,2C6.2,1.1,6.9,0.4,7.9,0.4
						L7.9,0.4z"/>
				</g>
				<path id="Fill-26" class="st0" d="M51.6,138.4h0.5c0.7,0,1.3-0.6,1.3-1.3s-0.6-1.3-1.3-1.3h-0.5V138.4z M51.2,138.7
					c0-0.1,0-0.5,0-0.8v-1.5c0-0.3,0-0.7,0-0.8h0.9c0.9,0,1.6,0.7,1.6,1.6c0,0.9-0.7,1.6-1.6,1.6H51.2L51.2,138.7z"/>
				<path id="Fill-27" class="st0" d="M58.2,136.1l-0.5,1.2h1L58.2,136.1z M59.3,138.7c0-0.1-0.1-0.3-0.2-0.5l-0.2-0.6h-1.2
					l-0.2,0.6c-0.1,0.3-0.2,0.4-0.2,0.5h-0.4c0.1-0.2,0.2-0.5,0.3-0.7l1.1-2.6h0.1l1.1,2.6c0.1,0.3,0.2,0.5,0.4,0.7H59.3L59.3,138.7
					z"/>
				<g id="Group-32" transform="translate(61.500000, 135.000000)">
					<g id="Clip-29">
					</g>
					<defs>
						<filter id="Adobe_OpacityMaskFilter_4_" filterUnits="userSpaceOnUse" x="0.7" y="0.4" width="2.8" height="3.2">
							<feColorMatrix  type="matrix" values="1 0 0 0 0  0 1 0 0 0  0 0 1 0 0  0 0 0 1 0"/>
						</filter>
					</defs>
					<mask maskUnits="userSpaceOnUse" x="0.7" y="0.4" width="2.8" height="3.2" id="mask-6_1_">
						<g class="st10">
							<polygon id="path-5_1_" class="st2" points="0.7,0.4 104.6,0.4 104.6,3.7 0.7,3.7 							"/>
						</g>
					</mask>
					<path id="Fill-28" class="st11" d="M1.9,3.7c0-0.1,0-0.5,0-0.8V2.2L1.2,1C1,0.8,0.9,0.6,0.7,0.4h0.5c0.1,0.2,0.1,0.3,0.3,0.4
						l0.6,1l0.6-0.9C2.9,0.7,3,0.6,3,0.4h0.5C3.4,0.6,3.2,0.8,3.1,1.1L2.3,2.2v0.7c0,0.3,0,0.7,0,0.8H1.9"/>
					<defs>
						<filter id="Adobe_OpacityMaskFilter_5_" filterUnits="userSpaceOnUse" x="95.9" y="0.4" width="2.5" height="3.3">
							<feColorMatrix  type="matrix" values="1 0 0 0 0  0 1 0 0 0  0 0 1 0 0  0 0 0 1 0"/>
						</filter>
					</defs>
					<mask maskUnits="userSpaceOnUse" x="95.9" y="0.4" width="2.5" height="3.3" id="mask-6_2_">
						<g class="st12">
							<polygon id="path-5_2_" class="st2" points="0.7,0.4 104.6,0.4 104.6,3.7 0.7,3.7 							"/>
						</g>
					</mask>
					<path id="Fill-30" class="st13" d="M96.4,0.4c0,0.1,0,0.5,0,0.8v1.1c0,0.6,0.4,1,0.9,1c0.5,0,0.9-0.4,0.9-1V1.3
						c0-0.3,0-0.6,0-0.8h0.4c0,0.2,0,0.6,0,0.8v1.1c0,0.8-0.5,1.4-1.2,1.4S96,3.2,96,2.4V1.3c0-0.3,0-0.7,0-0.8H96.4"/>
					<defs>
						<filter id="Adobe_OpacityMaskFilter_6_" filterUnits="userSpaceOnUse" x="102" y="0.4" width="2.6" height="3.4">
							<feColorMatrix  type="matrix" values="1 0 0 0 0  0 1 0 0 0  0 0 1 0 0  0 0 0 1 0"/>
						</filter>
					</defs>
					<mask maskUnits="userSpaceOnUse" x="102" y="0.4" width="2.6" height="3.4" id="mask-6_3_">
						<g class="st14">
							<polygon id="path-5_3_" class="st2" points="0.7,0.4 104.6,0.4 104.6,3.7 0.7,3.7 							"/>
						</g>
					</mask>
					<path id="Fill-31" class="st15" d="M102,3.7c0-0.1,0-0.4,0-0.7V1.3c0-0.3,0-0.7,0-0.9h0.1c0.1,0.2,0.2,0.3,0.4,0.4l1.8,2.1V1.3
						c0-0.3,0-0.6,0-0.8h0.4c0,0.2,0,0.6,0,0.8V3c0,0.2,0,0.4,0,0.7h-0.1c-0.1-0.2-0.2-0.2-0.4-0.4l-1.8-2.1l0,1.8
						c0,0.2,0,0.6,0,0.7H102"/>
				</g>
				<path id="Fill-33" class="st0" d="M170.1,137.8c0,0.3,0,0.7,0,0.8h-0.4c0-0.1,0-0.5,0-0.8v-1.5c0-0.3,0-0.7,0-0.8h0.4
					c0,0.1,0,0.5,0,0.8V137.8"/>
				<path id="Fill-34" class="st0" d="M175.2,135.4c0.3,0,0.7,0,0.8,0v0.4c-0.1,0-0.5,0-0.8,0h-0.3c0,0.2,0,0.4,0,0.6v1.5
					c0,0.3,0,0.7,0,0.8h-0.4c0-0.1,0-0.5,0-0.8v-1.5c0-0.2,0-0.4,0-0.6h-0.3c-0.3,0-0.7,0-0.8,0v-0.4c0.1,0,0.5,0,0.8,0H175.2"/>
				<path id="Fill-35" class="st0" d="M179.7,138.4h0.4c0.3,0,0.7,0,0.8,0v0.4c-0.1,0-0.5,0-0.8,0h-0.8c0-0.3,0-0.6,0-0.8v-1.6
					c0-0.3,0-0.7,0-0.8h0.8c0.3,0,0.7,0,0.8,0v0.4c-0.1,0-0.5,0-0.8,0h-0.4v1h0.4c0.3,0,0.6,0,0.7,0v0.4c-0.1,0-0.4,0-0.7,0h-0.4
					V138.4"/>
				<g id="Group-39" transform="translate(187.500000, 135.000000)">
					<g id="Clip-37">
					</g>
					<defs>
						<filter id="Adobe_OpacityMaskFilter_7_" filterUnits="userSpaceOnUse" x="0.6" y="0.4" width="1.6" height="3.3">
							<feColorMatrix  type="matrix" values="1 0 0 0 0  0 1 0 0 0  0 0 1 0 0  0 0 0 1 0"/>
						</filter>
					</defs>
					<mask maskUnits="userSpaceOnUse" x="0.6" y="0.4" width="1.6" height="3.3" id="mask-8_1_">
						<g class="st16">
							<polygon id="path-7_1_" class="st2" points="0.6,0.4 8.7,0.4 8.7,3.7 0.6,3.7 							"/>
						</g>
					</mask>
					<path id="Fill-36" class="st17" d="M0.6,3.7c0-0.1,0-0.5,0-0.8V1.3c0-0.3,0-0.7,0-0.8h0.8c0.3,0,0.6,0,0.8,0v0.4
						c-0.1,0-0.4,0-0.8,0H1v1.1h0.4c0.3,0,0.5,0,0.6,0v0.4c-0.1,0-0.3,0-0.6,0H1v0.6c0,0.3,0,0.7,0,0.8H0.6"/>
					<defs>
						<filter id="Adobe_OpacityMaskFilter_8_" filterUnits="userSpaceOnUse" x="5.4" y="0.4" width="3.4" height="3.4">
							<feColorMatrix  type="matrix" values="1 0 0 0 0  0 1 0 0 0  0 0 1 0 0  0 0 0 1 0"/>
						</filter>
					</defs>
					<mask maskUnits="userSpaceOnUse" x="5.4" y="0.4" width="3.4" height="3.4" id="mask-8_2_">
						<g class="st18">
							<polygon id="path-7_2_" class="st2" points="0.6,0.4 8.7,0.4 8.7,3.7 0.6,3.7 							"/>
						</g>
					</mask>
					<path id="Fill-38" class="st19" d="M7.1,3.4c0.7,0,1.3-0.6,1.3-1.3c0-0.7-0.6-1.3-1.3-1.3S5.8,1.3,5.8,2
						C5.8,2.8,6.3,3.4,7.1,3.4z M7.1,0.4C8,0.4,8.7,1.1,8.7,2C8.7,3,8,3.7,7.1,3.7C6.1,3.7,5.4,3,5.4,2C5.4,1.1,6.1,0.4,7.1,0.4
						L7.1,0.4z"/>
				</g>
				<path id="Fill-40" class="st0" d="M200.1,137h0.3c0.4,0,0.7-0.3,0.7-0.7c0-0.3-0.2-0.6-0.7-0.6h-0.3V137z M200.1,137.9
					c0,0.3,0,0.7,0,0.8h-0.4c0-0.1,0-0.5,0-0.8v-1.6c0-0.3,0-0.7,0-0.8h0.7c0.7,0,1.1,0.4,1.1,0.9c0,0.5-0.3,0.8-0.6,0.9
					c0.3,0.4,0.7,1.1,1.1,1.4h-0.5c-0.3-0.3-0.7-0.9-0.9-1.4c-0.1,0-0.1,0-0.2,0h-0.3V137.9L200.1,137.9z"/>
				<g id="Group-44" transform="translate(204.750000, 135.000000)">
					<g id="Clip-42">
					</g>
					<defs>
						<filter id="Adobe_OpacityMaskFilter_9_" filterUnits="userSpaceOnUse" x="0.3" y="0.4" width="1.6" height="3.3">
							<feColorMatrix  type="matrix" values="1 0 0 0 0  0 1 0 0 0  0 0 1 0 0  0 0 0 1 0"/>
						</filter>
					</defs>
					<mask maskUnits="userSpaceOnUse" x="0.3" y="0.4" width="1.6" height="3.3" id="mask-10_1_">
						<g class="st20">
							<polygon id="path-9_1_" class="st2" points="0.3,0.4 8,0.4 8,3.7 0.3,3.7 							"/>
						</g>
					</mask>
					<path id="Fill-41" class="st21" d="M0.7,3.4h0.4c0.3,0,0.7,0,0.8,0v0.4c-0.1,0-0.5,0-0.8,0H0.3c0-0.3,0-0.6,0-0.8V1.3
						c0-0.3,0-0.7,0-0.8h0.8c0.3,0,0.7,0,0.8,0v0.4c-0.1,0-0.5,0-0.8,0H0.7v1h0.4c0.3,0,0.6,0,0.7,0v0.4c-0.1,0-0.4,0-0.7,0H0.7V3.4
						"/>
					<defs>
						<filter id="Adobe_OpacityMaskFilter_10_" filterUnits="userSpaceOnUse" x="5" y="0.4" width="3" height="3.3">
							<feColorMatrix  type="matrix" values="1 0 0 0 0  0 1 0 0 0  0 0 1 0 0  0 0 0 1 0"/>
						</filter>
					</defs>
					<mask maskUnits="userSpaceOnUse" x="5" y="0.4" width="3" height="3.3" id="mask-10_2_">
						<g class="st22">
							<polygon id="path-9_2_" class="st2" points="0.3,0.4 8,0.4 8,3.7 0.3,3.7 							"/>
						</g>
					</mask>
					<path id="Fill-43" class="st23" d="M6.6,3l0.8-2c0.1-0.2,0.2-0.4,0.2-0.6H8C7.9,0.6,7.8,0.9,7.7,1.1L6.6,3.8H6.5L5.4,1.1
						C5.3,0.9,5.1,0.6,5,0.4h0.5c0,0.2,0.1,0.4,0.2,0.6L6.6,3"/>
				</g>
				<path id="Fill-45" class="st0" d="M216.4,138.4h0.4c0.3,0,0.7,0,0.8,0v0.4c-0.1,0-0.5,0-0.8,0H216c0-0.3,0-0.6,0-0.8v-1.6
					c0-0.3,0-0.7,0-0.8h0.8c0.3,0,0.7,0,0.8,0v0.4c-0.1,0-0.5,0-0.8,0h-0.4v1h0.4c0.3,0,0.6,0,0.7,0v0.4c-0.1,0-0.4,0-0.7,0h-0.4
					V138.4"/>
				<path id="Fill-46" class="st0" d="M221.4,137h0.3c0.4,0,0.7-0.3,0.7-0.7c0-0.3-0.2-0.6-0.7-0.6h-0.3V137z M221.4,137.9
					c0,0.3,0,0.7,0,0.8H221c0-0.1,0-0.5,0-0.8v-1.6c0-0.3,0-0.7,0-0.8h0.7c0.7,0,1.1,0.4,1.1,0.9c0,0.5-0.3,0.8-0.6,0.9
					c0.3,0.4,0.7,1.1,1.1,1.4h-0.5c-0.3-0.3-0.7-0.9-0.9-1.4c-0.1,0-0.1,0-0.2,0h-0.3V137.9L221.4,137.9z"/>
				<g id="Group-51" transform="translate(74.250000, 135.000000)">
					<g id="Clip-48">
					</g>
					<defs>
						<filter id="Adobe_OpacityMaskFilter_11_" filterUnits="userSpaceOnUse" x="0.4" y="0.4" width="1.7" height="3.3">
							<feColorMatrix  type="matrix" values="1 0 0 0 0  0 1 0 0 0  0 0 1 0 0  0 0 0 1 0"/>
						</filter>
					</defs>
					<mask maskUnits="userSpaceOnUse" x="0.4" y="0.4" width="1.7" height="3.3" id="mask-12_1_">
						<g class="st24">
							<polygon id="path-11_1_" class="st2" points="0.4,0.4 14.4,0.4 14.4,3.7 0.4,3.7 							"/>
						</g>
					</mask>
					<path id="Fill-47" class="st25" d="M0.8,3.3h0.6c0.3,0,0.6,0,0.8,0v0.4c-0.1,0-0.4,0-0.8,0h-1c0-0.3,0-0.6,0-0.8V1.3
						c0-0.3,0-0.7,0-0.8h0.4c0,0.1,0,0.5,0,0.8V3.3"/>
					<defs>
						<filter id="Adobe_OpacityMaskFilter_12_" filterUnits="userSpaceOnUse" x="5.1" y="0.4" width="3.4" height="3.4">
							<feColorMatrix  type="matrix" values="1 0 0 0 0  0 1 0 0 0  0 0 1 0 0  0 0 0 1 0"/>
						</filter>
					</defs>
					<mask maskUnits="userSpaceOnUse" x="5.1" y="0.4" width="3.4" height="3.4" id="mask-12_2_">
						<g class="st26">
							<polygon id="path-11_2_" class="st2" points="0.4,0.4 14.4,0.4 14.4,3.7 0.4,3.7 							"/>
						</g>
					</mask>
					<path id="Fill-49" class="st27" d="M6.8,3.4c0.7,0,1.3-0.6,1.3-1.3c0-0.7-0.6-1.3-1.3-1.3C6.1,0.7,5.5,1.3,5.5,2
						C5.5,2.8,6.1,3.4,6.8,3.4z M6.8,0.4c0.9,0,1.7,0.8,1.7,1.7c0,0.9-0.7,1.7-1.7,1.7S5.1,3,5.1,2C5.1,1.1,5.8,0.4,6.8,0.4L6.8,0.4
						z"/>
					<defs>
						<filter id="Adobe_OpacityMaskFilter_13_" filterUnits="userSpaceOnUse" x="11.4" y="0.4" width="3" height="3.3">
							<feColorMatrix  type="matrix" values="1 0 0 0 0  0 1 0 0 0  0 0 1 0 0  0 0 0 1 0"/>
						</filter>
					</defs>
					<mask maskUnits="userSpaceOnUse" x="11.4" y="0.4" width="3" height="3.3" id="mask-12_3_">
						<g class="st28">
							<polygon id="path-11_3_" class="st2" points="0.4,0.4 14.4,0.4 14.4,3.7 0.4,3.7 							"/>
						</g>
					</mask>
					<path id="Fill-50" class="st29" d="M13,3l0.8-2C13.9,0.8,14,0.6,14,0.4h0.4c-0.1,0.2-0.2,0.5-0.3,0.7L13,3.8h-0.1l-1.1-2.6
						c-0.1-0.3-0.2-0.5-0.3-0.7h0.5c0,0.2,0.1,0.4,0.2,0.6L13,3"/>
				</g>
				<path id="Fill-52" class="st0" d="M92.3,138.4h0.4c0.3,0,0.7,0,0.8,0v0.4c-0.1,0-0.5,0-0.8,0h-0.8c0-0.3,0-0.6,0-0.8v-1.6
					c0-0.3,0-0.7,0-0.8h0.8c0.3,0,0.7,0,0.8,0v0.4c-0.1,0-0.5,0-0.8,0h-0.4v1h0.4c0.3,0,0.6,0,0.7,0v0.4c-0.1,0-0.4,0-0.7,0h-0.4
					V138.4"/>
				<g id="Group-58" transform="translate(100.500000, 135.000000)">
					<g id="Clip-54">
					</g>
					<defs>
						<filter id="Adobe_OpacityMaskFilter_14_" filterUnits="userSpaceOnUse" x="0" y="0.4" width="2.7" height="3.3">
							<feColorMatrix  type="matrix" values="1 0 0 0 0  0 1 0 0 0  0 0 1 0 0  0 0 0 1 0"/>
						</filter>
					</defs>
					<mask maskUnits="userSpaceOnUse" x="0" y="0.4" width="2.7" height="3.3" id="mask-14_1_">
						<g class="st30">
							<polygon id="path-13_1_" class="st2" points="0,0.4 22.4,0.4 22.4,3.7 0,3.7 							"/>
						</g>
					</mask>
					<path id="Fill-53" class="st31" d="M1.9,0.4c0.3,0,0.7,0,0.8,0v0.4c-0.1,0-0.5,0-0.8,0H1.6c0,0.2,0,0.4,0,0.6v1.5
						c0,0.3,0,0.7,0,0.8H1.2c0-0.1,0-0.5,0-0.8V1.4c0-0.2,0-0.4,0-0.6H0.8c-0.3,0-0.7,0-0.8,0V0.4c0.1,0,0.5,0,0.8,0H1.9"/>
					<defs>
						<filter id="Adobe_OpacityMaskFilter_15_" filterUnits="userSpaceOnUse" x="5.6" y="0.4" width="3.4" height="3.4">
							<feColorMatrix  type="matrix" values="1 0 0 0 0  0 1 0 0 0  0 0 1 0 0  0 0 0 1 0"/>
						</filter>
					</defs>
					<mask maskUnits="userSpaceOnUse" x="5.6" y="0.4" width="3.4" height="3.4" id="mask-14_2_">
						<g class="st32">
							<polygon id="path-13_2_" class="st2" points="0,0.4 22.4,0.4 22.4,3.7 0,3.7 							"/>
						</g>
					</mask>
					<path id="Fill-55" class="st33" d="M7.3,3.4C8,3.4,8.6,2.8,8.6,2c0-0.7-0.6-1.3-1.3-1.3C6.6,0.7,6,1.3,6,2
						C6,2.8,6.6,3.4,7.3,3.4z M7.3,0.4C8.2,0.4,9,1.1,9,2C9,3,8.2,3.7,7.3,3.7S5.6,3,5.6,2C5.6,1.1,6.3,0.4,7.3,0.4L7.3,0.4z"/>
					<defs>
						<filter id="Adobe_OpacityMaskFilter_16_" filterUnits="userSpaceOnUse" x="12.2" y="0.4" width="3.5" height="3.3">
							<feColorMatrix  type="matrix" values="1 0 0 0 0  0 1 0 0 0  0 0 1 0 0  0 0 0 1 0"/>
						</filter>
					</defs>
					<mask maskUnits="userSpaceOnUse" x="12.2" y="0.4" width="3.5" height="3.3" id="mask-14_3_">
						<g class="st34">
							<polygon id="path-13_3_" class="st2" points="0,0.4 22.4,0.4 22.4,3.7 0,3.7 							"/>
						</g>
					</mask>
					<path id="Fill-56" class="st35" d="M12.2,3.7c0-0.2,0.1-0.5,0.1-0.9l0.3-2.4h0.1L14,3.1l1.2-2.7h0.1l0.3,2.5
						c0,0.3,0.1,0.5,0.1,0.8h-0.4c0-0.2,0-0.3,0-0.6l-0.2-1.7L14,3.7h-0.1l-1-2.4L12.7,3c0,0.3-0.1,0.5-0.1,0.7H12.2"/>
					<defs>
						<filter id="Adobe_OpacityMaskFilter_17_" filterUnits="userSpaceOnUse" x="19" y="0.4" width="3.4" height="3.4">
							<feColorMatrix  type="matrix" values="1 0 0 0 0  0 1 0 0 0  0 0 1 0 0  0 0 0 1 0"/>
						</filter>
					</defs>
					<mask maskUnits="userSpaceOnUse" x="19" y="0.4" width="3.4" height="3.4" id="mask-14_4_">
						<g class="st36">
							<polygon id="path-13_4_" class="st2" points="0,0.4 22.4,0.4 22.4,3.7 0,3.7 							"/>
						</g>
					</mask>
					<path id="Fill-57" class="st37" d="M20.7,3.4C21.4,3.4,22,2.8,22,2c0-0.7-0.6-1.3-1.3-1.3c-0.7,0-1.3,0.6-1.3,1.3
						C19.4,2.8,20,3.4,20.7,3.4z M20.7,0.4c0.9,0,1.7,0.8,1.7,1.7c0,0.9-0.7,1.7-1.7,1.7S19,3,19,2C19,1.1,19.8,0.4,20.7,0.4
						L20.7,0.4z"/>
				</g>
				<path id="Fill-59" class="st0" d="M126.7,137h0.3c0.4,0,0.7-0.3,0.7-0.7c0-0.3-0.2-0.6-0.7-0.6h-0.3V137z M126.7,137.9
					c0,0.3,0,0.7,0,0.8h-0.4c0-0.1,0-0.5,0-0.8v-1.6c0-0.3,0-0.7,0-0.8h0.7c0.7,0,1.1,0.4,1.1,0.9c0,0.5-0.3,0.8-0.6,0.9
					c0.3,0.4,0.7,1.1,1.1,1.4H128c-0.3-0.3-0.7-0.9-0.9-1.4c-0.1,0-0.1,0-0.2,0h-0.3V137.9L126.7,137.9z"/>
				<g id="Group-64" transform="translate(131.250000, 135.000000)">
					<g id="Clip-61">
					</g>
					<defs>
						<filter id="Adobe_OpacityMaskFilter_18_" filterUnits="userSpaceOnUse" x="0.5" y="0.4" width="2.3" height="3.2">
							<feColorMatrix  type="matrix" values="1 0 0 0 0  0 1 0 0 0  0 0 1 0 0  0 0 0 1 0"/>
						</filter>
					</defs>
					<mask maskUnits="userSpaceOnUse" x="0.5" y="0.4" width="2.3" height="3.2" id="mask-16_1_">
						<g class="st38">
							<polygon id="path-15_1_" class="st2" points="0.5,0.4 16.6,0.4 16.6,3.7 0.5,3.7 							"/>
						</g>
					</mask>
					<path id="Fill-60" class="st39" d="M0.9,2h0.3c0.4,0,0.7-0.3,0.7-0.7c0-0.3-0.2-0.6-0.7-0.6H0.9V2z M0.9,2.9c0,0.3,0,0.7,0,0.8
						H0.5c0-0.1,0-0.5,0-0.8V1.3c0-0.3,0-0.7,0-0.8h0.7c0.7,0,1.1,0.4,1.1,0.9c0,0.5-0.3,0.8-0.6,0.9c0.3,0.4,0.7,1.1,1.1,1.4H2.2
						C1.9,3.3,1.5,2.8,1.3,2.3c-0.1,0-0.1,0-0.2,0H0.9V2.9L0.9,2.9z"/>
					<defs>
						<filter id="Adobe_OpacityMaskFilter_19_" filterUnits="userSpaceOnUse" x="5.6" y="0.4" width="3.4" height="3.4">
							<feColorMatrix  type="matrix" values="1 0 0 0 0  0 1 0 0 0  0 0 1 0 0  0 0 0 1 0"/>
						</filter>
					</defs>
					<mask maskUnits="userSpaceOnUse" x="5.6" y="0.4" width="3.4" height="3.4" id="mask-16_2_">
						<g class="st40">
							<polygon id="path-15_2_" class="st2" points="0.5,0.4 16.6,0.4 16.6,3.7 0.5,3.7 							"/>
						</g>
					</mask>
					<path id="Fill-62" class="st41" d="M7.3,3.4C8,3.4,8.6,2.8,8.6,2c0-0.7-0.6-1.3-1.3-1.3S6,1.3,6,2C6,2.8,6.6,3.4,7.3,3.4z
						 M7.3,0.4C8.2,0.4,9,1.1,9,2C9,3,8.2,3.7,7.3,3.7C6.4,3.7,5.6,3,5.6,2C5.6,1.1,6.4,0.4,7.3,0.4L7.3,0.4z"/>
					<defs>
						<filter id="Adobe_OpacityMaskFilter_20_" filterUnits="userSpaceOnUse" x="11.7" y="0.4" width="4.9" height="3.3">
							<feColorMatrix  type="matrix" values="1 0 0 0 0  0 1 0 0 0  0 0 1 0 0  0 0 0 1 0"/>
						</filter>
					</defs>
					<mask maskUnits="userSpaceOnUse" x="11.7" y="0.4" width="4.9" height="3.3" id="mask-16_3_">
						<g class="st42">
							<polygon id="path-15_3_" class="st2" points="0.5,0.4 16.6,0.4 16.6,3.7 0.5,3.7 							"/>
						</g>
					</mask>
					<path id="Fill-63" class="st43" d="M16.2,0.4C16.1,0.6,16,0.8,16,1l-0.8,2l-0.8-1.8L14.3,1c0-0.1-0.1-0.2-0.1-0.2
						c0,0.1-0.1,0.2-0.1,0.2L14,1.2L13.3,3l-0.8-2c-0.1-0.2-0.2-0.4-0.2-0.6h-0.5c0.1,0.2,0.2,0.5,0.3,0.7l1.1,2.6h0.1l0.9-2.1
						l0.9,2.1h0.1l1.1-2.6c0.1-0.3,0.2-0.5,0.3-0.7H16.2"/>
				</g>
			</g>
		</g>
	</g>
</g>
</svg>
